<svg width="667" height="667" viewBox="0 0 667 667" fill="none" xmlns="http://www.w3.org/2000/svg">
<g clip-path="url(#clip0_83_1209)">
<mask id="mask0_83_1209" style="mask-type:alpha" maskUnits="userSpaceOnUse" x="0" y="0" width="667" height="667">
<path d="M0 6.10352e-05H666.667V666.667H0V6.10352e-05Z" fill="white"/>
</mask>
<g mask="url(#mask0_83_1209)">
<path d="M66.7862 225.944C77.8142 199.968 96.3475 164.688 117.563 146.081C146.661 120.562 175.133 109.561 203.343 108.833C262.259 107.313 305.563 125.193 316.913 176.726C322.071 200.153 314.651 216.637 314.502 240.624C314.351 264.61 306.391 292.2 322.118 310.314C344.251 335.81 382.81 338.28 416.317 334.116C449.822 329.952 484.395 321.189 516.678 331.073C565.474 346.013 603.077 409.678 594.155 459.925C585.233 510.172 559.849 562.326 513.573 583.84C467.298 605.356 390.267 607.916 338.055 608.52L280.642 605.573C190.722 594.001 119.89 552.71 79.2182 480.069C38.5462 407.429 31.1688 309.836 66.7862 225.944Z" fill="#E4F2FF"/>
<path d="M440.182 151.086C440.182 186.046 471.123 214.386 509.291 214.386C547.459 214.386 578.399 186.046 578.399 151.086C578.399 116.126 547.459 87.7858 509.291 87.7858C471.123 87.7858 440.182 116.126 440.182 151.086Z" fill="#E4F2FF"/>
<path d="M494.954 607.396C486.903 599.559 460.598 574.83 473.446 554.226C489.659 528.224 518.771 543.234 512.43 512.43C506.09 481.628 501.318 465.523 532.191 452.552C563.062 439.583 551.2 427.227 553.816 409.535C557.21 386.598 582.174 369.186 609.948 378.704C631.374 386.048 627.291 428.751 612.664 441.178C598.038 453.604 629.14 464.396 616.434 494.094C603.73 523.791 571.835 513.447 574.123 536.59C574.687 542.28 584.231 568.994 578.015 584.475C574.899 592.234 568.263 600.278 555.362 606.944" stroke="#92CDFE" stroke-width="1.33333" stroke-miterlimit="10"/>
<path d="M507.343 607.197C509.869 601.368 512.405 595.544 514.943 589.72C521.243 575.262 527.564 560.816 533.909 546.381C541.981 528.018 550.089 509.672 558.261 491.356C566.151 473.673 574.092 456.012 582.192 438.425C587.9 426.03 593.585 413.596 599.845 401.466C600.324 400.538 600.809 399.613 601.303 398.692C601.607 398.124 600.744 397.618 600.439 398.186C594.492 409.286 589.26 420.79 583.967 432.21C575.979 449.44 568.175 466.753 560.42 484.088C552.155 502.564 543.963 521.07 535.809 539.596C529.152 554.717 522.524 569.848 515.921 584.992C513.803 589.845 511.688 594.702 509.577 599.558C508.596 601.813 507.416 604.07 506.608 606.394C506.573 606.497 506.523 606.594 506.48 606.692C506.225 607.277 507.088 607.786 507.343 607.197Z" fill="#92CDFE"/>
<path d="M564.622 476.902C576.823 476.227 589.027 475.551 601.229 474.876C602.99 474.779 604.754 474.682 606.517 474.584C607.155 474.548 607.159 473.548 606.517 473.584C594.314 474.26 582.111 474.934 569.909 475.61C568.147 475.707 566.383 475.804 564.622 475.902C563.982 475.936 563.978 476.938 564.622 476.902Z" fill="#92CDFE"/>
<path d="M522.321 572.322C535.907 570.794 549.493 569.265 563.079 567.738C565.032 567.517 566.984 567.298 568.937 567.078C569.571 567.007 569.576 566.007 568.937 566.078C555.351 567.606 541.765 569.134 528.179 570.663C526.227 570.882 524.273 571.102 522.321 571.322C521.688 571.393 521.681 572.394 522.321 572.322Z" fill="#92CDFE"/>
<path d="M518.735 467.744C521.507 473.967 524.279 480.189 527.05 486.411C531.47 496.328 535.887 506.248 540.307 516.165C541.32 518.443 542.336 520.721 543.351 522.999C543.612 523.587 544.475 523.079 544.214 522.495C541.442 516.272 538.67 510.051 535.899 503.828C531.48 493.911 527.062 483.992 522.643 474.073C521.628 471.796 520.612 469.517 519.598 467.24C519.336 466.653 518.475 467.161 518.735 467.744Z" fill="#92CDFE"/>
<path d="M578.841 404.467C576.792 407.476 573.225 408.619 570.873 407.017C568.523 405.417 568.277 401.68 570.325 398.669C572.375 395.661 575.941 394.517 578.293 396.119C580.645 397.719 580.889 401.456 578.841 404.467Z" fill="#92CDFE"/>
<path d="M580.344 420.739C580.344 422.329 579.055 423.619 577.464 423.619C575.872 423.619 574.584 422.329 574.584 420.739C574.584 419.148 575.872 417.859 577.464 417.859C579.055 417.859 580.344 419.148 580.344 420.739Z" fill="#92CDFE"/>
<path d="M601.228 495.03C601.228 498.12 598.721 500.626 595.632 500.626C592.54 500.626 590.033 498.12 590.033 495.03C590.033 491.94 592.54 489.433 595.632 489.433C598.721 489.433 601.228 491.94 601.228 495.03Z" fill="#92CDFE"/>
<path d="M116.295 607.189C108.533 607.473 77.158 614.365 77.67 588.832C77.9327 575.793 74.13 576.267 66.49 571.157C58.8487 566.047 59.0327 562.777 59.7034 555.481C60.3727 548.184 53.0994 551.717 48.254 542.123C42.4594 530.644 49.4367 522.079 60.6994 520.017C71.962 517.957 71.634 530.105 76.1114 533.725C80.5874 537.347 86.7767 529.56 95.378 540.117C100.991 547.011 92.274 562.735 100.533 561.271" stroke="#92CDFE" stroke-width="1.33333" stroke-miterlimit="10"/>
<path d="M101.553 584.442C90.5481 569.571 78.9241 555.16 66.7814 541.204C65.9361 540.232 64.5254 541.651 65.3668 542.619C77.3988 556.447 88.9214 570.718 99.8268 585.451C100.584 586.474 102.32 585.478 101.553 584.442Z" fill="#92CDFE"/>
<path d="M82.8009 540.555C82.3942 546.632 81.9889 552.707 81.5822 558.784C81.5249 559.642 81.4675 560.5 81.4102 561.359L82.4102 560.359C76.8355 560.82 71.2622 561.282 65.6875 561.744C64.4129 561.85 64.4022 563.851 65.6875 563.744C71.2622 563.282 76.8355 562.82 82.4102 562.359C82.9782 562.311 83.3715 561.936 83.4102 561.359C83.8169 555.283 84.2222 549.206 84.6289 543.131C84.6862 542.271 84.7435 541.414 84.8009 540.555C84.8862 539.271 82.8862 539.276 82.8009 540.555Z" fill="#92CDFE"/>
<path d="M66.2417 456.193C52.2617 444.806 48.919 409.63 68.8377 398.949C93.4644 385.745 119.244 406.182 122.487 427.2C124.99 443.412 113.651 454.733 143.158 466.616C172.664 478.501 168.106 493.258 162.046 521.484C155.983 549.708 175.923 539.36 191.42 563.184C203.7 582.062 186.443 601.32 178.748 608.5L118.395 608.206C116.44 607.054 114.566 605.769 112.804 604.329C93.3137 588.397 101.022 563.221 103.079 543.618C105.886 516.869 74.7817 531.893 62.6377 504.681C50.495 477.47 80.2217 467.581 66.2417 456.193Z" stroke="#92CDFE" stroke-width="1.33333" stroke-miterlimit="10"/>
<path d="M168.182 607.582C165.757 602.216 163.322 596.854 160.885 591.493C154.885 578.292 148.864 565.102 142.821 551.921C135.088 535.054 127.318 518.204 119.489 501.382C111.954 485.192 104.372 469.022 96.6384 452.926C91.1837 441.572 85.7491 430.177 79.7771 419.084C79.3171 418.228 78.8504 417.377 78.3771 416.528C77.7491 415.404 76.0211 416.412 76.6504 417.538C82.3437 427.726 87.3651 438.312 92.4437 448.814C100.048 464.541 107.481 480.349 114.866 496.177C122.785 513.146 130.634 530.145 138.446 547.162C144.801 561.001 151.129 574.852 157.436 588.714C159.458 593.158 161.477 597.605 163.493 602.052C164.426 604.109 165.217 606.348 166.332 608.316C166.38 608.402 166.414 608.5 166.456 608.592C166.985 609.762 168.709 608.746 168.182 607.582Z" fill="#92CDFE"/>
<path d="M112.161 487.97C100.481 487.35 88.801 486.73 77.121 486.11C75.4544 486.024 73.7864 485.936 72.1197 485.846C71.4757 485.813 71.4784 486.813 72.1197 486.846C83.7997 487.465 95.4784 488.085 107.158 488.705C108.826 488.793 110.493 488.882 112.161 488.97C112.804 489.004 112.802 488.004 112.161 487.97Z" fill="#92CDFE"/>
<path d="M152.591 575.404C139.451 573.987 126.309 572.569 113.168 571.153C111.299 570.951 109.429 570.749 107.561 570.547C106.923 570.479 106.927 571.48 107.561 571.547C120.701 572.965 133.843 574.381 146.984 575.799C148.853 576 150.723 576.203 152.591 576.404C153.229 576.472 153.225 575.472 152.591 575.404Z" fill="#92CDFE"/>
<path d="M155.174 480.054C148.289 494.87 141.405 509.686 134.52 524.502C133.562 526.563 132.605 528.623 131.646 530.684C131.377 531.264 132.24 531.772 132.51 531.19C139.396 516.372 146.281 501.556 153.165 486.742C154.122 484.68 155.081 482.619 156.037 480.558C156.308 479.978 155.446 479.471 155.174 480.054Z" fill="#92CDFE"/>
<path d="M98.5695 422.555C100.528 425.312 103.936 426.36 106.184 424.894C108.431 423.427 108.666 420.002 106.708 417.244C104.75 414.487 101.34 413.439 99.0935 414.907C96.8455 416.372 96.6109 419.798 98.5695 422.555Z" fill="#92CDFE"/>
<path d="M77.1729 505.539C77.1729 508.371 79.5675 510.667 82.5222 510.667C85.4769 510.667 87.8715 508.371 87.8715 505.539C87.8715 502.706 85.4769 500.41 82.5222 500.41C79.5675 500.41 77.1729 502.706 77.1729 505.539Z" fill="#92CDFE"/>
<path d="M269.273 608.619C264.455 603.927 248.711 589.126 256.4 576.794C266.105 561.231 283.529 570.214 279.733 551.778C275.939 533.342 273.084 523.702 291.561 515.939C310.039 508.176 302.939 500.782 304.505 490.192C306.536 476.463 321.477 466.04 338.103 471.739C350.927 476.135 348.483 501.694 339.727 509.131C330.973 516.568 349.588 523.028 341.984 540.804C334.38 558.579 315.289 552.386 316.66 566.238C316.996 569.646 322.709 585.634 318.989 594.899C317.124 599.542 313.152 604.358 305.429 608.348" stroke="#92CDFE" stroke-width="1.33333" stroke-miterlimit="10"/>
<path d="M276.863 608.601C282.132 596.438 287.447 584.295 292.78 572.161C302.251 550.618 311.76 529.087 321.603 507.713C325.298 499.69 328.931 491.594 333.102 483.802C333.404 483.237 332.542 482.73 332.238 483.298C328.647 490.006 325.486 496.957 322.288 503.855C317.532 514.119 312.884 524.431 308.266 534.755C299.303 554.794 290.468 574.889 281.692 595.01C279.791 599.37 277.891 603.731 275.999 608.095C275.747 608.681 276.607 609.19 276.863 608.601Z" fill="#92CDFE"/>
<path d="M310.972 530.714C318.278 530.309 325.585 529.906 332.892 529.502C333.944 529.443 334.996 529.385 336.048 529.327C336.686 529.291 336.692 528.291 336.048 528.327C328.741 528.731 321.434 529.134 314.128 529.539C313.076 529.598 312.024 529.655 310.972 529.714C310.332 529.749 310.328 530.749 310.972 530.714Z" fill="#92CDFE"/>
<path d="M285.653 587.826C293.784 586.91 301.913 585.997 310.044 585.082C311.213 584.951 312.384 584.819 313.555 584.687C314.187 584.617 314.195 583.615 313.555 583.687C305.425 584.602 297.295 585.517 289.164 586.431C287.993 586.563 286.824 586.694 285.653 586.826C285.021 586.897 285.015 587.898 285.653 587.826Z" fill="#92CDFE"/>
<path d="M283.334 525.133C287.63 534.777 291.926 544.421 296.224 554.065C296.838 555.445 297.453 556.827 298.068 558.205C298.329 558.792 299.192 558.284 298.93 557.701C294.634 548.056 290.338 538.412 286.041 528.769L284.197 524.628C283.936 524.043 283.074 524.551 283.334 525.133Z" fill="#92CDFE"/>
<path d="M319.484 487.158C318.257 488.959 316.123 489.643 314.715 488.686C313.308 487.727 313.161 485.49 314.387 483.689C315.613 481.887 317.748 481.203 319.156 482.162C320.563 483.119 320.709 485.355 319.484 487.158Z" fill="#92CDFE"/>
<path d="M320.384 496.898C320.384 497.85 319.612 498.622 318.66 498.622C317.708 498.622 316.936 497.85 316.936 496.898C316.936 495.946 317.708 495.174 318.66 495.174C319.612 495.174 320.384 495.946 320.384 496.898Z" fill="#92CDFE"/>
<path d="M332.883 541.364C332.883 543.214 331.383 544.713 329.532 544.713C327.683 544.713 326.183 543.214 326.183 541.364C326.183 539.513 327.683 538.013 329.532 538.013C331.383 538.013 332.883 539.513 332.883 541.364Z" fill="#92CDFE"/>
<path fill-rule="evenodd" clip-rule="evenodd" d="M272.354 379.201C264.659 377.476 257.019 382.314 255.292 390.01C253.567 397.706 258.407 405.344 266.102 407.07C273.799 408.797 281.436 403.957 283.163 396.262C284.888 388.565 280.05 380.928 272.354 379.201ZM283.807 363.916C286.412 365.274 288.792 366.961 290.9 368.913L298.482 366.214L305.606 377.46L299.928 383.164C300.792 385.901 301.304 388.774 301.418 391.713L308.684 395.165L305.77 408.154L297.726 408.172C296.368 410.781 294.679 413.16 292.727 415.266L295.426 422.846L284.182 429.972L278.479 424.294C275.739 425.16 272.867 425.669 269.928 425.782L266.478 433.049L253.487 430.136L253.47 422.092C250.86 420.733 248.483 419.045 246.375 417.093L238.794 419.792L231.668 408.546L237.347 402.844C236.483 400.105 235.974 397.232 235.858 394.293L228.594 390.842L231.507 377.852L239.55 377.836C240.907 375.228 242.596 372.848 244.548 370.74L241.85 363.16L253.095 356.034L258.798 361.713C261.536 360.848 264.408 360.338 267.348 360.225L270.798 352.958L283.787 355.872L283.807 363.916Z" fill="#92CDFE"/>
<path d="M398.12 439.491C391.882 438.093 385.69 442.015 384.291 448.253C382.891 454.493 386.815 460.683 393.052 462.082C399.292 463.482 405.483 459.559 406.882 453.321C408.282 447.082 404.359 440.891 398.12 439.491ZM407.404 427.101C409.518 428.202 411.446 429.571 413.154 431.153L419.299 428.965L425.075 438.081L420.474 442.702C421.174 444.923 421.588 447.251 421.68 449.633L427.57 452.431L425.206 462.961L418.687 462.974C417.588 465.089 416.218 467.018 414.635 468.726L416.822 474.871L407.707 480.646L403.086 476.045C400.866 476.745 398.536 477.158 396.154 477.25L393.358 483.139L382.826 480.779L382.814 474.258C380.699 473.158 378.771 471.79 377.062 470.206L370.916 472.394L365.142 463.278L369.744 458.657C369.043 456.435 368.631 454.107 368.538 451.726L362.648 448.929L365.01 438.399L371.53 438.385C372.63 436.27 373.999 434.342 375.582 432.633L373.394 426.487L382.508 420.713L387.132 425.315C389.352 424.615 391.68 424.201 394.063 424.109L396.86 418.219L407.388 420.581L407.404 427.101Z" stroke="#92CDFE" stroke-width="1.33333" stroke-miterlimit="10"/>
<path d="M85.3352 246.755C77.6405 245.03 70.0005 249.867 68.2739 257.564C66.5472 265.26 71.3885 272.898 79.0832 274.624C86.7792 276.351 94.4179 271.511 96.1432 263.815C97.8699 256.119 93.0312 248.48 85.3352 246.755ZM96.7872 231.47C99.3939 232.828 101.774 234.516 103.882 236.467L111.462 233.768L118.587 245.015L112.91 250.716C113.774 253.456 114.285 256.328 114.399 259.267L121.666 262.718L118.75 275.707L110.707 275.726C109.35 278.334 107.661 280.712 105.709 282.82L108.407 290.402L97.1632 297.526L91.4592 291.848C88.7205 292.712 85.8485 293.222 82.9085 293.336L79.4592 300.602L66.4672 297.69L66.4499 289.644C63.8419 288.288 61.4645 286.599 59.3565 284.647L51.7739 287.346L44.6499 276.1L50.3285 270.398C49.4645 267.658 48.9552 264.786 48.8392 261.847L41.5752 258.396L44.4872 245.407L52.5312 245.39C53.8885 242.782 55.5779 240.402 57.5299 238.294L54.8312 230.712L66.0752 223.588L71.7792 229.267C74.5179 228.402 77.3899 227.892 80.3299 227.778L83.7792 220.512L96.7685 223.426L96.7872 231.47Z" stroke="#92CDFE" stroke-width="1.33333" stroke-miterlimit="10"/>
<path d="M327.094 250.404C322.303 249.329 317.546 252.343 316.473 257.133C315.398 261.925 318.411 266.681 323.202 267.756C327.994 268.829 332.749 265.817 333.823 261.025C334.898 256.235 331.886 251.479 327.094 250.404ZM334.225 240.888C335.846 241.733 337.329 242.784 338.641 243.999L343.361 242.319L347.795 249.32L344.262 252.871C344.799 254.576 345.118 256.364 345.189 258.193L349.713 260.343L347.898 268.429L342.891 268.44C342.046 270.064 340.994 271.545 339.778 272.857L341.458 277.577L334.458 282.013L330.907 278.479C329.202 279.016 327.414 279.333 325.583 279.404L323.435 283.929L315.347 282.115L315.337 277.107C313.713 276.263 312.233 275.211 310.921 273.995L306.199 275.675L301.763 268.673L305.299 265.124C304.761 263.419 304.445 261.629 304.371 259.8L299.849 257.652L301.663 249.564L306.671 249.553C307.515 247.931 308.567 246.448 309.783 245.136L308.102 240.416L315.103 235.981L318.654 239.516C320.359 238.977 322.147 238.66 323.978 238.589L326.125 234.067L334.213 235.88L334.225 240.888Z" stroke="#92CDFE" stroke-width="1.33333" stroke-miterlimit="10"/>
<path d="M537.56 305.671C530.36 304.055 523.21 308.584 521.594 315.786C519.979 322.988 524.51 330.138 531.71 331.752C538.914 333.368 546.062 328.839 547.676 321.636C549.292 314.434 544.763 307.286 537.56 305.671ZM548.279 291.366C550.718 292.638 552.946 294.216 554.919 296.043L562.012 293.518L568.68 304.042L563.367 309.378C564.176 311.942 564.654 314.63 564.76 317.38L571.56 320.61L568.832 332.766L561.306 332.782C560.035 335.223 558.455 337.45 556.627 339.422L559.152 346.518L548.63 353.184L543.294 347.871C540.73 348.68 538.042 349.156 535.291 349.263L532.062 356.063L519.904 353.336L519.888 345.81C517.447 344.539 515.222 342.959 513.25 341.132L506.154 343.656L499.486 333.132L504.8 327.796C503.991 325.232 503.515 322.546 503.407 319.795L496.608 316.566L499.335 304.408L506.862 304.394C508.132 301.951 509.712 299.726 511.539 297.752L509.015 290.658L519.536 283.991L524.874 289.304C527.438 288.495 530.126 288.018 532.876 287.911L536.106 281.112L548.26 283.839L548.279 291.366Z" stroke="#92CDFE" stroke-width="1.33333" stroke-miterlimit="10"/>
<path d="M389.171 211.123C387.729 211.651 386.898 213.34 387.446 214.84L387.811 215.839C388.379 217.394 390.085 218.092 391.529 217.564C393.083 216.996 393.822 215.403 393.255 213.848L392.889 212.85C392.341 211.35 390.727 210.555 389.171 211.123ZM393.293 186.07C390.937 179.628 383.753 176.338 377.31 178.694C373.035 180.258 370.113 183.972 369.373 188.144C369.083 189.762 370.117 191.21 371.678 191.519C373.294 191.811 374.798 190.758 375.087 189.139C375.474 186.922 377.025 184.968 379.302 184.136C382.801 182.856 386.627 184.542 387.906 188.04C389.165 191.483 387.349 195.294 383.851 196.574C382.407 197.102 381.597 198.847 382.125 200.29C382.145 200.346 382.145 200.346 382.221 200.38C382.242 200.436 382.187 200.456 382.206 200.512L384.318 206.288C384.887 207.843 386.59 208.542 388.034 208.014C389.59 207.446 390.329 205.852 389.761 204.298L388.441 200.688C393.158 197.578 395.303 191.567 393.293 186.07V186.07Z" stroke="#92CDFE" stroke-width="1.33333" stroke-miterlimit="10"/>
<path d="M101.547 167.885C99.6902 168.563 98.6235 170.735 99.3275 172.662L99.7982 173.947C100.529 175.946 102.719 176.846 104.575 176.167C106.575 175.437 107.526 173.387 106.795 171.389L106.325 170.105C105.619 168.177 103.546 167.154 101.547 167.885ZM106.845 135.673C103.815 127.39 94.5768 123.161 86.2968 126.19C80.7982 128.201 77.0408 132.974 76.0888 138.341C75.7168 140.421 77.0448 142.282 79.0528 142.681C81.1315 143.053 83.0648 141.698 83.4382 139.619C83.9328 136.767 85.9275 134.258 88.8555 133.187C93.3528 131.542 98.2742 133.709 99.9195 138.206C101.538 142.631 99.2022 147.534 94.7048 149.179C92.8488 149.858 91.8075 152.101 92.4862 153.957C92.5128 154.029 92.5128 154.029 92.6102 154.074C92.6355 154.145 92.5648 154.17 92.5902 154.243L95.3062 161.667C96.0382 163.667 98.2288 164.566 100.085 163.887C102.083 163.157 103.034 161.109 102.303 159.109L100.606 154.469C106.671 150.467 109.43 142.741 106.845 135.673V135.673Z" stroke="#92CDFE" stroke-width="1.33333" stroke-miterlimit="10"/>
<path d="M588.495 259.104C587.28 258.337 585.553 258.687 584.757 259.949L584.227 260.792C583.4 262.101 583.856 263.763 585.072 264.529C586.381 265.355 587.983 264.992 588.809 263.683L589.341 262.841C590.136 261.577 589.804 259.931 588.495 259.104ZM609.399 247.837C612.82 242.412 611.151 235.212 605.725 231.791C602.125 229.519 597.705 229.476 594.192 231.315C592.829 232.023 592.348 233.616 593.011 234.949C593.72 236.312 595.359 236.823 596.721 236.113C598.584 235.131 600.917 235.164 602.835 236.373C605.783 238.232 606.72 242.028 604.861 244.975C603.032 247.875 599.173 248.709 596.225 246.851C595.011 246.083 593.255 246.48 592.487 247.696C592.459 247.743 592.459 247.743 592.475 247.819C592.445 247.865 592.399 247.836 592.369 247.883L589.3 252.747C588.475 254.057 588.932 255.717 590.147 256.485C591.457 257.311 593.059 256.948 593.884 255.639L595.801 252.599C600.801 254.315 606.476 252.467 609.399 247.837Z" stroke="#92CDFE" stroke-width="1.33333" stroke-miterlimit="10"/>
<path d="M554.084 164.387C551.768 163.775 549.2 165.192 548.563 167.597L548.139 169.201C547.479 171.696 549.034 174.109 551.35 174.721C553.844 175.383 556.211 174.007 556.871 171.512L557.295 169.908C557.932 167.503 556.579 165.047 554.084 164.387ZM581.702 136.039C584.438 125.703 578.19 115.088 567.854 112.353C560.994 110.539 553.944 112.677 549.276 117.353C547.462 119.161 547.491 121.933 549.21 123.723C551.018 125.536 553.88 125.529 555.692 123.723C558.164 121.231 561.89 120.119 565.543 121.085C571.156 122.571 574.546 128.139 573.059 133.752C571.599 139.276 565.875 142.528 560.262 141.043C557.946 140.431 555.354 141.937 554.74 144.253C554.718 144.343 554.718 144.343 554.783 144.456C554.76 144.544 554.67 144.521 554.647 144.611L552.195 153.876C551.534 156.371 553.088 158.784 555.404 159.397C557.899 160.057 560.266 158.681 560.927 156.187L562.458 150.396C571.263 150.628 579.368 144.859 581.702 136.039V136.039Z" stroke="#2E4ECC" stroke-width="1.33333" stroke-miterlimit="10"/>
<path d="M346.257 83.7608C342.495 79.1048 336.905 75.8035 330.805 75.6968C327.275 75.6355 323.557 76.1021 320.406 77.7848C317.655 79.2515 315.225 81.3408 313.27 83.7608C309.901 87.9301 307.959 93.3701 308.543 98.6995C309.03 103.15 311.23 107.23 314.135 110.57C316.969 113.829 321.099 116.517 321.807 121.119C322.009 122.433 321.525 124.249 322.527 125.299C323.721 126.551 325.657 126.115 327.183 126.103C329.001 126.089 330.815 126.078 332.633 126.069C333.934 126.062 336.015 126.423 336.999 125.299C338.001 124.249 337.515 122.433 337.719 121.119C338.251 117.651 340.954 114.843 343.443 112.585C346.298 109.993 348.562 107.013 349.838 103.333C352.198 96.5208 350.755 89.3301 346.257 83.7608Z" fill="#D9D9D9" stroke="#2E4ECC" stroke-width="1.33333" stroke-miterlimit="10" stroke-linecap="round"/>
<path d="M328.51 130.075C328.51 130.075 328.057 117.929 327.5 111.977C327.352 110.387 327.226 108.757 326.452 106.321C325.172 102.295 323.121 101.71 321.878 102.625C320.308 103.779 321.317 106.21 323.597 107.207C324.973 107.807 327.516 107.535 328.83 106.759C331.138 105.395 332.154 102.162 331.83 99.734C331.668 98.5127 329.306 97.1353 328.464 99.4047C327.876 100.991 329.18 106.787 332.24 106.957C333.854 107.047 335.449 106.41 336.678 105.379C337.713 104.513 339.478 102.413 338.805 100.946C338.48 100.241 337.554 99.9713 336.805 100.181C336.057 100.39 335.466 100.963 334.984 101.571C333.078 103.971 332.346 107.005 332.194 110.005C331.832 117.165 331.74 122.794 331.512 129.959" stroke="#2E4ECC" stroke-width="1.33333" stroke-miterlimit="10"/>
<path d="M336.506 131.297C336.294 131.033 336.303 130.603 336.528 130.355L336.604 130.271C336.826 130.027 336.84 129.605 336.636 129.34L336.511 129.179C336.298 128.901 336.323 128.459 336.568 128.223C336.807 127.991 336.838 127.559 336.635 127.279L336.306 126.825C336.184 126.66 335.995 126.563 335.796 126.563H323.563C323.363 126.563 323.174 126.66 323.054 126.825L322.724 127.279C322.522 127.559 322.552 127.991 322.791 128.223C323.035 128.459 323.062 128.901 322.847 129.179L322.723 129.34C322.519 129.605 322.534 130.027 322.755 130.271L322.831 130.355C323.056 130.603 323.066 131.033 322.852 131.297L322.755 131.417C322.538 131.687 322.554 132.129 322.79 132.373L322.84 132.425C323.102 132.695 323.431 132.843 323.772 132.843H325.284L326.823 135.701C327.012 136.055 327.392 136.277 327.808 136.283L331.954 136.327C332.374 136.332 332.76 136.112 332.955 135.759L334.562 132.843H335.587C335.927 132.843 336.256 132.695 336.518 132.425L336.568 132.373C336.806 132.129 336.822 131.687 336.603 131.417L336.506 131.297Z" fill="#6FBBEF"/>
<path d="M324.311 128.509H335.501" stroke="#2E4ECC" stroke-width="0.666667" stroke-miterlimit="10" stroke-linecap="round" stroke-linejoin="round"/>
<path d="M323.755 129.906H336.055" stroke="#2E4ECC" stroke-width="0.666667" stroke-miterlimit="10" stroke-linecap="round" stroke-linejoin="round"/>
<path d="M324.781 131.302H335.029" stroke="#2E4ECC" stroke-width="0.666667" stroke-miterlimit="10" stroke-linecap="round" stroke-linejoin="round"/>
<path d="M330.557 81.3358C327.816 81.2878 324.929 81.6504 322.481 82.9571C320.347 84.0958 318.459 85.7184 316.94 87.5984C314.324 90.8371 312.816 95.0611 313.269 99.1998" stroke="#6FBBEF" stroke-width="1.6" stroke-miterlimit="10" stroke-linecap="round"/>
<path d="M327.85 57.9326V71.8846" stroke="#2E4ECC" stroke-width="1.33333" stroke-miterlimit="10" stroke-linecap="round"/>
<path d="M348.086 65.8012L341.829 74.4825" stroke="#2E4ECC" stroke-width="1.33333" stroke-miterlimit="10" stroke-linecap="round"/>
<path d="M363.987 78.5492L351.192 84.1146" stroke="#2E4ECC" stroke-width="1.33333" stroke-miterlimit="10" stroke-linecap="round"/>
<path d="M363.972 95.794L354.873 96.1807" stroke="#2E4ECC" stroke-width="1.33333" stroke-miterlimit="10" stroke-linecap="round"/>
<path d="M364.563 115.672L351.918 109.775" stroke="#2E4ECC" stroke-width="1.33333" stroke-miterlimit="10" stroke-linecap="round"/>
<path d="M310.74 66.1743L316.727 74.4823" stroke="#2E4ECC" stroke-width="1.33333" stroke-miterlimit="10" stroke-linecap="round"/>
<path d="M294.569 78.5492L307.364 84.1146" stroke="#2E4ECC" stroke-width="1.33333" stroke-miterlimit="10" stroke-linecap="round"/>
<path d="M295.325 95.8253L303.684 96.1813" stroke="#2E4ECC" stroke-width="1.33333" stroke-miterlimit="10" stroke-linecap="round"/>
<path d="M293.994 115.672L306.639 109.775" stroke="#2E4ECC" stroke-width="1.33333" stroke-miterlimit="10" stroke-linecap="round"/>
<path d="M176.683 170.225C176.683 170.225 146.132 169.698 116.213 213.102C84.3052 259.392 91.9425 305.266 112.444 312.721C125.341 317.41 137.399 319.613 148.235 320.276L176.683 170.225Z" fill="#5069FF"/>
<path d="M363.664 348.181C363.664 348.181 354.608 351.957 353.156 350.125C350.951 347.341 363.516 340.344 365.791 338.465C368.066 336.587 376.315 331.785 379.734 329.909C383.151 328.035 388.623 323.385 388.623 323.385L404.12 334.579C404.12 334.579 391.216 354.627 382.983 364C374.748 373.375 365.787 379.684 363.475 377.904C361.164 376.124 364.711 374.42 364.711 374.42C364.711 374.42 359.699 377.524 358.332 376.4C356.967 375.275 360.099 371.915 360.099 371.915C360.099 371.915 354.532 376.087 352.688 374.464C350.843 372.841 357.554 367.215 357.554 367.215C357.554 367.215 351.476 371.072 350.276 369.043C349.076 367.012 357.591 359.328 363.522 353.893C369.452 348.459 366.355 347.175 363.664 348.181Z" fill="#F6C8A6"/>
<path d="M356.962 350.347C356.962 350.347 362.477 348.723 364.743 347.908C367.011 347.093 368.978 346.295 373.117 346.435C377.257 346.576 382.119 343.333 382.119 343.333" stroke="#EF8576" stroke-miterlimit="10" stroke-linecap="round"/>
<path d="M356.962 367.572L367.115 358.683" stroke="#EF8576" stroke-miterlimit="10" stroke-linecap="round"/>
<path d="M360.1 371.915L370.116 363.128" stroke="#EF8576" stroke-miterlimit="10" stroke-linecap="round"/>
<path d="M364.079 374.791L373.634 366.652" stroke="#EF8576" stroke-miterlimit="10" stroke-linecap="round"/>
<path d="M399.249 307.065C399.249 308.945 397.725 310.469 395.845 310.469C393.965 310.469 392.441 308.945 392.441 307.065C392.441 305.184 393.965 303.66 395.845 303.66C397.725 303.66 399.249 305.184 399.249 307.065Z" fill="#EB3341"/>
<path d="M413.003 321.101C413.003 322.981 411.479 324.505 409.599 324.505C407.719 324.505 406.195 322.981 406.195 321.101C406.195 319.221 407.719 317.697 409.599 317.697C411.479 317.697 413.003 319.221 413.003 321.101Z" fill="#EB3341"/>
<path d="M415.414 297.935C415.414 299.815 413.89 301.339 412.01 301.339C410.13 301.339 408.606 299.815 408.606 297.935C408.606 296.055 410.13 294.531 412.01 294.531C413.89 294.531 415.414 296.055 415.414 297.935Z" fill="#EB3341"/>
<path d="M426.66 270.451C426.66 272.331 425.136 273.855 423.256 273.855C421.376 273.855 419.852 272.331 419.852 270.451C419.852 268.571 421.376 267.047 423.256 267.047C425.136 267.047 426.66 268.571 426.66 270.451Z" fill="#EB3341"/>
<path d="M418.8 251.888C420.68 251.888 422.205 250.364 422.205 248.484C422.205 247.321 421.62 246.298 420.732 245.684C419.705 247.668 418.666 249.66 417.61 251.662C417.984 251.802 418.381 251.888 418.8 251.888Z" fill="#EB3341"/>
<path d="M406.638 279.974C406.638 278.332 405.475 276.962 403.928 276.64C402.859 278.512 401.783 280.375 400.7 282.228C401.324 282.928 402.222 283.379 403.234 283.379C405.114 283.379 406.638 281.855 406.638 279.974Z" fill="#EB3341"/>
<path d="M427.329 326.338C425.449 326.338 423.925 327.862 423.925 329.742C423.925 330.846 424.459 331.818 425.274 332.44C426.961 331.227 428.713 329.946 430.521 328.592C430.047 327.28 428.803 326.338 427.329 326.338Z" fill="#EB3341"/>
<path d="M412.607 307.586C412.249 306.974 411.475 306.805 410.869 307.13C408.106 308.61 405.29 309.985 402.423 311.253C401.797 311.532 401.65 312.448 401.969 312.992C402.347 313.64 403.078 313.726 403.706 313.448C406.573 312.18 409.389 310.805 412.151 309.325C412.755 309.001 412.945 308.162 412.607 307.586Z" fill="#5069FF"/>
<path d="M422.276 278.304C419.651 279.889 417.052 281.536 414.378 283.037C413.799 283.362 413.555 284.205 413.922 284.776C414.302 285.362 415.04 285.58 415.66 285.232C418.335 283.729 420.934 282.084 423.559 280.498C424.128 280.154 424.39 279.342 424.015 278.76C423.646 278.188 422.884 277.936 422.276 278.304Z" fill="#5069FF"/>
<path d="M391.771 313.106C389.146 314.691 386.547 316.337 383.874 317.839C383.294 318.165 383.05 319.007 383.417 319.578C383.797 320.163 384.535 320.382 385.157 320.033C387.83 318.531 390.429 316.885 393.054 315.301C393.623 314.957 393.886 314.145 393.51 313.562C393.141 312.99 392.381 312.738 391.771 313.106Z" fill="#5069FF"/>
<path d="M412.355 269.836C413.003 270.178 413.688 269.965 414.093 269.38C415.405 267.484 416.719 265.588 418.032 263.693C418.411 263.145 418.151 262.258 417.576 261.954C416.928 261.612 416.243 261.825 415.837 262.41C414.525 264.306 413.212 266.201 411.899 268.097C411.52 268.645 411.78 269.532 412.355 269.836Z" fill="#5069FF"/>
<path d="M401.126 296.259C401.488 296.842 402.262 297.067 402.865 296.715C403.446 296.374 403.682 295.563 403.321 294.976C401.542 292.099 399.916 289.134 398.422 286.099C397.912 286.956 397.4 287.807 396.888 288.659C398.205 291.246 399.6 293.79 401.126 296.259Z" fill="#5069FF"/>
<path d="M428.883 245.284C429.61 246.75 431.8 245.463 431.078 244.002C429.519 240.862 427.962 237.722 426.404 234.58C425.932 235.516 425.454 236.462 424.974 237.406C426.276 240.032 427.579 242.658 428.883 245.284Z" fill="#5069FF"/>
<path d="M415.826 338.99C416.483 337.05 417.105 335.098 417.645 333.123C418.078 331.545 415.629 330.87 415.195 332.447C414.377 335.435 413.421 338.382 412.341 341.283C413.417 340.585 414.581 339.821 415.826 338.99Z" fill="#5069FF"/>
<path d="M418.617 337.106L383.027 310.469C380.524 314.158 378.016 317.713 375.511 321.102L404.032 346.435C404.032 346.435 409.811 343.119 418.617 337.106Z" fill="#EB3341"/>
<path d="M445.673 194.467C430.979 226.493 403.033 283.872 375.511 321.101L404.032 346.436C404.032 346.436 473.856 306.371 498.384 251.929C483.965 236.155 457.404 207.12 445.673 194.467Z" fill="white" stroke="#16004D" stroke-width="1.33333" stroke-miterlimit="10" stroke-linecap="round"/>
<path d="M423.012 537.448L420.248 574.45L448.895 575.118L451.289 539.24L423.012 537.448Z" fill="#F6C8A6"/>
<path d="M375.881 608.435H455.761L456.956 562.181L416.857 563.47L415.409 581.738L375.881 608.435Z" fill="white" stroke="#161522" stroke-width="1.33333" stroke-miterlimit="10"/>
<path d="M399.424 587.745L404.109 598.673L399.424 587.745Z" fill="#263238"/>
<path d="M398.993 587.998C400.361 591.191 401.73 594.385 403.098 597.578C403.291 598.026 403.483 598.475 403.677 598.926C403.929 599.515 404.791 599.007 404.539 598.421C403.171 595.229 401.802 592.034 400.434 588.842C400.242 588.393 400.049 587.943 399.855 587.493C399.603 586.905 398.742 587.413 398.993 587.998Z" fill="#161522"/>
<path d="M406.771 583.894L411.455 594.82L406.771 583.894Z" fill="#263238"/>
<path d="M406.339 584.145C407.709 587.34 409.078 590.532 410.446 593.725C410.639 594.173 410.831 594.624 411.025 595.073C411.277 595.664 412.139 595.154 411.887 594.568C410.519 591.376 409.15 588.182 407.781 584.989L407.202 583.641C406.95 583.052 406.089 583.561 406.339 584.145Z" fill="#161522"/>
<path d="M412.553 581.926C410.038 580.854 407.581 579.615 405.198 578.279C403.3 577.215 401.429 576.071 399.696 574.749C398.282 573.67 396.722 572.383 395.944 570.738C395.293 569.362 395.766 568.09 396.87 567.099C397.869 566.203 399.113 566.253 400.262 566.833C401.802 567.611 403.05 568.934 404.156 570.231C405.474 571.778 406.634 573.459 407.721 575.177C409.236 577.569 410.645 580.054 411.868 582.61C412.145 583.19 413.009 582.683 412.732 582.106C411.604 579.747 410.312 577.455 408.937 575.235C407.796 573.391 406.57 571.59 405.19 569.914C404.013 568.483 402.678 567.045 401.05 566.121C399.817 565.423 398.352 565.093 397.036 565.771C395.717 566.451 394.546 568.038 394.613 569.562C394.688 571.231 395.908 572.678 397.045 573.79C398.645 575.357 400.529 576.639 402.428 577.811C405.492 579.703 408.734 581.378 412.048 582.789C412.634 583.039 413.142 582.177 412.553 581.926Z" fill="#161522"/>
<path d="M407.583 562.771C408.979 568.643 410.376 574.517 411.772 580.389C411.968 581.214 412.164 582.039 412.36 582.865C412.508 583.491 413.473 583.226 413.325 582.599C411.928 576.727 410.532 570.854 409.136 564.982C408.94 564.157 408.743 563.331 408.548 562.506C408.397 561.879 407.435 562.145 407.583 562.771Z" fill="#161522"/>
<path d="M456.284 588.179C447.465 588.424 438.628 595.94 438.503 604.844C438.487 605.977 438.587 607.084 438.788 608.155L456.307 608.449L456.284 588.179Z" fill="#EB3341"/>
<path d="M456.284 588.179C447.465 588.424 438.628 595.94 438.503 604.844C438.487 605.977 438.587 607.084 438.788 608.155L456.307 608.449L456.284 588.179Z" stroke="#161522" stroke-width="1.33333" stroke-miterlimit="10"/>
<path d="M422.298 316.931L411.583 546.561L461.163 547.329L479.888 351.47L480.38 316.411L422.298 316.931Z" fill="#2E4ECC"/>
<path d="M503.965 539.533L506.068 576.578L534.554 573.492L532.233 537.609L503.965 539.533Z" fill="#F6C8A6"/>
<path d="M458.829 608.347L543.14 608.733L538.493 561.852L501.33 563.72L499.881 581.988L458.829 608.347Z" fill="white" stroke="#161522" stroke-width="1.33333" stroke-miterlimit="10"/>
<path d="M483.896 587.997L488.58 598.925L483.896 587.997Z" fill="#263238"/>
<path d="M483.464 588.249C484.832 591.442 486.203 594.634 487.571 597.829L488.15 599.176C488.402 599.766 489.264 599.257 489.012 598.672C487.644 595.478 486.274 592.285 484.906 589.093C484.714 588.644 484.52 588.193 484.327 587.744C484.075 587.154 483.214 587.664 483.464 588.249Z" fill="#161522"/>
<path d="M491.243 584.144L495.928 595.072L491.243 584.144Z" fill="#263238"/>
<path d="M490.812 584.396C492.18 587.59 493.549 590.783 494.919 593.976C495.112 594.424 495.304 594.874 495.497 595.324C495.749 595.914 496.612 595.406 496.36 594.819C494.991 591.627 493.621 588.432 492.253 585.24L491.675 583.892C491.423 583.303 490.561 583.811 490.812 584.396Z" fill="#161522"/>
<path d="M497.024 582.177C494.509 581.105 492.053 579.867 489.67 578.531C487.772 577.467 485.901 576.323 484.168 575C482.753 573.921 481.193 572.635 480.416 570.989C479.764 569.613 480.238 568.341 481.342 567.349C482.34 566.455 483.585 566.504 484.733 567.084C486.273 567.861 487.522 569.185 488.628 570.483C489.946 572.029 491.106 573.711 492.193 575.428C493.708 577.82 495.117 580.305 496.34 582.861C496.617 583.441 497.481 582.935 497.204 582.357C496.076 579.999 494.784 577.707 493.409 575.485C492.268 573.643 491.042 571.841 489.662 570.164C488.484 568.735 487.15 567.296 485.521 566.372C484.289 565.675 482.824 565.344 481.508 566.023C480.189 566.703 479.017 568.289 479.085 569.813C479.158 571.483 480.38 572.929 481.516 574.041C483.117 575.607 485 576.891 486.9 578.063C489.964 579.955 493.205 581.629 496.52 583.04C497.105 583.291 497.614 582.428 497.024 582.177Z" fill="#161522"/>
<path d="M492.055 563.023C493.451 568.895 494.847 574.768 496.244 580.64C496.439 581.465 496.636 582.291 496.832 583.115C496.98 583.741 497.945 583.477 497.796 582.849L493.608 565.232C493.412 564.408 493.215 563.583 493.019 562.757C492.869 562.131 491.905 562.396 492.055 563.023Z" fill="#161522"/>
<path d="M541.123 588.39C532.305 588.635 523.099 596.192 522.977 605.095C522.959 606.227 523.059 607.334 523.262 608.406L542.735 608.728L541.123 588.39Z" fill="#EB3341"/>
<path d="M541.123 588.39C532.305 588.635 523.099 596.192 522.977 605.095C522.959 606.227 523.059 607.334 523.262 608.406L542.735 608.728L541.123 588.39Z" stroke="#161522" stroke-width="1.33333" stroke-miterlimit="10"/>
<path d="M446.821 344.472L463.233 344.702L491.056 546.273L540.01 546.96L520.908 316.294L443.257 314.418L446.821 344.472Z" fill="#2E4ECC"/>
<path d="M446.82 344.472L463.232 344.702L491.055 546.273L540.01 546.96" stroke="#16004D" stroke-width="1.33333" stroke-miterlimit="10" stroke-linecap="round"/>
<path d="M496.596 340.572C496.596 340.572 501.121 354.619 515.814 355.733" stroke="#16004D" stroke-width="1.33333" stroke-miterlimit="10" stroke-linecap="round"/>
<path d="M475.966 175.121C475.966 175.121 456.529 167.605 437.893 200.261C425.838 221.383 414.676 328.271 414.676 328.271L527.013 327.651L516.565 218.027L475.966 175.121Z" fill="#F9F0F0"/>
<path d="M414.676 328.272L527.013 327.652L525.752 314.419H416.232C415.233 322.933 414.676 328.272 414.676 328.272Z" fill="#EB3341"/>
<path d="M475.966 175.121C475.966 175.121 456.529 167.605 437.893 200.261C425.838 221.383 414.676 328.271 414.676 328.271L527.013 327.651L516.565 218.027L475.966 175.121Z" stroke="#16004D" stroke-width="1.33333" stroke-miterlimit="10" stroke-linecap="round"/>
<path d="M433.822 155.632C434.461 145.796 440.888 146.188 440.888 146.188C440.888 146.188 439.04 142.911 442.326 137.876C446.017 132.221 452.49 131.663 455.492 131.737C457.79 125.867 460.554 121.725 463.362 121.62C472.257 121.288 482.105 140.06 489.522 139.925C496.942 139.792 522.302 164.011 502.094 170.279C480.065 177.113 450.833 171.036 450.833 171.036C443.589 169.845 433.228 164.775 433.822 155.632Z" fill="#2E4ECC"/>
<path d="M487.612 175.502C487.612 179.48 481.828 182.706 474.695 182.706C467.563 182.706 461.78 179.48 461.78 175.502C461.78 171.523 467.563 168.299 474.695 168.299C481.828 168.299 487.612 171.523 487.612 175.502Z" fill="#EB3341"/>
<path d="M487.612 175.502C487.612 179.48 481.828 182.706 474.695 182.706C467.563 182.706 461.78 179.48 461.78 175.502C461.78 171.523 467.563 168.299 474.695 168.299C481.828 168.299 487.612 171.523 487.612 175.502Z" stroke="#16004D" stroke-miterlimit="10"/>
<path d="M459.718 115.901H470.391C477.487 115.901 483.294 122.607 483.294 130.801V147.583C483.294 148.056 483.27 148.523 483.231 148.984C483.347 149.48 483.414 149.992 483.414 150.521V160.737V161.307V171.523C483.414 175.231 480.423 178.263 476.769 178.263H472.534C468.879 178.263 465.89 175.231 465.89 171.523V162.483H459.718C452.622 162.483 446.815 155.777 446.815 147.583V130.801C446.815 122.607 452.622 115.901 459.718 115.901Z" fill="#F6C8A6"/>
<path d="M489.15 147.838C489.15 147.838 498.849 141.133 500.196 129.866C500.196 129.866 500.604 112.672 486.396 106.314C472.186 99.957 458.188 102.506 452.572 104.652C442.038 108.676 437.576 115.013 441.641 123.764C444.668 130.274 459.761 126.858 464.982 122.797C464.982 122.797 465.906 129.673 478.914 131.597L483.366 149.745L483.64 155.685L489.15 147.838Z" fill="#2E4ECC"/>
<path d="M512.75 93.9789C512.75 101.37 506.758 107.363 499.367 107.363C491.975 107.363 485.983 101.37 485.983 93.9789C485.983 86.5882 491.975 80.5949 499.367 80.5949C506.758 80.5949 512.75 86.5882 512.75 93.9789Z" fill="#2E4ECC"/>
<path d="M468.175 136.284C468.175 137.632 467.098 138.725 465.769 138.725C464.439 138.725 463.363 137.632 463.363 136.284C463.363 134.937 464.439 133.844 465.769 133.844C467.098 133.844 468.175 134.937 468.175 136.284Z" fill="#0F110E"/>
<path d="M452.422 135.927C452.422 137.078 451.503 138.01 450.369 138.01C449.234 138.01 448.315 137.078 448.315 135.927C448.315 134.776 449.234 133.844 450.369 133.844C451.503 133.844 452.422 134.776 452.422 135.927Z" fill="#0F110E"/>
<path d="M476.181 144.909C476.153 148.046 473.625 150.566 470.533 150.54C467.44 150.512 464.955 147.946 464.983 144.81C465.009 141.674 467.539 139.153 470.629 139.181C473.723 139.208 476.208 141.772 476.181 144.909Z" fill="#EF8576"/>
<path d="M447.856 140.734C447.516 140.731 447.186 140.772 446.867 140.847L446.818 146.738C446.81 147.618 446.834 148.47 447.003 149.299C447.236 149.342 447.538 149.376 447.782 149.379C450.136 149.4 452.06 147.482 452.082 145.095C452.103 142.707 450.211 140.755 447.856 140.734Z" fill="#EF8576"/>
<path d="M475.567 135.382C475.567 140.327 472.258 144.337 468.175 144.337C464.094 144.337 460.783 140.327 460.783 135.382C460.783 130.437 464.094 126.426 468.175 126.426C472.258 126.426 475.567 130.437 475.567 135.382Z" stroke="#EB3341" stroke-miterlimit="10"/>
<path d="M456.262 134.526C456.262 139.164 453.316 142.922 449.68 142.922C446.044 142.922 443.096 139.164 443.096 134.526C443.096 129.889 446.044 126.13 449.68 126.13C453.316 126.13 456.262 129.889 456.262 134.526Z" stroke="#EB3341" stroke-miterlimit="10"/>
<path d="M475.567 135.382L485.119 137.613" stroke="#EB3341" stroke-miterlimit="10"/>
<path d="M458.937 133.359L455.421 139.601L459.324 141.867" fill="#F6C8A6"/>
<path d="M458.937 133.359L455.421 139.601L459.324 141.867" stroke="#0F110E" stroke-miterlimit="10" stroke-linecap="round"/>
<path d="M460.536 136.812C457.936 135.368 455.69 136.7 455.621 136.756L455.682 135.806C455.776 135.726 457.766 133.902 461.104 135.756L460.536 136.812Z" fill="#EB3341"/>
<path d="M465.002 130.968C466.482 131.411 467.833 132.073 469.122 132.987C469.407 133.189 469.875 133.047 470.033 132.747C470.214 132.405 470.098 132.051 469.794 131.835C468.446 130.88 466.938 130.156 465.357 129.683C465.022 129.581 464.615 129.801 464.535 130.148C464.454 130.507 464.643 130.86 465.002 130.968Z" fill="#0F110E"/>
<path d="M448.798 132.41C448.85 132.362 448.902 132.315 448.957 132.271C448.982 132.25 449.01 132.218 449.04 132.203C448.993 132.226 448.968 132.257 449.03 132.213C449.15 132.125 449.273 132.041 449.401 131.963C449.649 131.811 449.909 131.681 450.174 131.562C450.208 131.549 450.24 131.531 450.272 131.521C450.22 131.538 450.192 131.553 450.261 131.525C450.326 131.499 450.393 131.473 450.46 131.447C450.593 131.395 450.726 131.347 450.861 131.299C451.148 131.201 451.437 131.109 451.724 131.018C452.056 130.913 452.304 130.549 452.19 130.197C452.082 129.863 451.725 129.619 451.37 129.731C450.113 130.129 448.846 130.565 447.856 131.467C447.597 131.702 447.598 132.174 447.856 132.41C448.132 132.663 448.522 132.661 448.798 132.41Z" fill="#0F110E"/>
<path d="M458.781 148.806C458.781 148.806 459.936 146.409 463.363 146.066" stroke="#0F110E" stroke-miterlimit="10" stroke-linecap="round"/>
<path d="M520.055 147.303C522.148 156.829 515.559 165.14 505.509 169.164C485.912 177.009 480.569 155.776 485.433 142.331C490.299 128.884 505.224 127.381 507.987 137.921C507.987 137.921 517.541 135.869 520.055 147.303Z" fill="#2E4ECC"/>
<path d="M496.739 142.429C496.739 147.15 492.933 150.978 488.241 150.978C483.548 150.978 479.744 147.15 479.744 142.429C479.744 137.707 483.548 133.879 488.241 133.879C492.933 133.879 496.739 137.707 496.739 142.429Z" fill="#F6C8A6"/>
<path d="M484.196 143.558C484.184 143.376 484.191 143.194 484.201 143.011C484.205 142.922 484.213 142.834 484.221 142.744C484.224 142.696 484.231 142.65 484.235 142.603C484.237 142.579 484.241 142.555 484.244 142.53C484.255 142.423 484.221 142.674 484.243 142.539C484.281 142.298 484.327 142.059 484.388 141.822C484.419 141.702 484.453 141.583 484.493 141.464C484.513 141.403 484.535 141.343 484.557 141.283C484.572 141.24 484.663 141.024 484.604 141.159C484.723 140.883 484.864 140.618 485.035 140.37C485.055 140.34 485.183 140.168 485.099 140.276C485.143 140.22 485.188 140.164 485.235 140.111C485.341 139.99 485.455 139.874 485.576 139.767C485.757 139.606 485.697 139.655 485.885 139.531C486.033 139.434 486.188 139.346 486.349 139.268C486.388 139.251 486.427 139.234 486.464 139.216C486.365 139.259 486.529 139.192 486.551 139.184C486.651 139.147 486.753 139.114 486.856 139.083C487.057 139.024 487.327 138.967 487.493 138.944C487.993 138.872 488.609 138.89 489.151 138.947C489.447 138.978 489.7 138.671 489.7 138.396C489.7 138.072 489.447 137.878 489.151 137.846C487.396 137.662 485.503 138.028 484.345 139.464C483.577 140.418 483.216 141.604 483.113 142.811C483.093 143.058 483.079 143.31 483.095 143.558C483.139 144.262 484.24 144.267 484.196 143.558Z" fill="#EF8576"/>
<path d="M442.657 151.658C441.622 149.914 442.788 147.515 446.289 148.041C454.06 149.205 469.513 154.313 469.513 154.313C469.513 154.313 473.24 142.391 476.86 142.081C480.482 141.77 479.55 144.689 479.136 149.139C478.722 153.589 478.974 155.458 479.596 160.218C479.736 161.289 481.084 164.989 482.056 167.283C485.401 175.186 491.324 187.825 491.324 187.825L472.204 194.567L464.752 176.045C464.752 176.045 456.37 172.733 454.921 170.301C453.537 167.975 453.902 166.375 456.018 166.707C456.114 166.722 456.214 166.742 456.318 166.766C458.698 167.299 453.473 166.523 452.645 164.403C451.817 162.281 453.729 161.919 453.729 161.919C453.729 161.919 451.077 161.871 451.396 157.057C451.396 157.057 444.096 154.079 442.657 151.658Z" fill="#F6C8A6"/>
<path d="M457.957 158.935C457.957 158.935 441.92 154.977 442.328 149.983C442.584 146.877 445.648 147.191 456.616 150.539C467.584 153.887 469.512 154.313 469.512 154.313C469.512 154.313 471.037 149.086 473.283 145.498C475.529 141.91 478.42 140.999 479.38 143.266C480.34 145.533 477.655 151.602 479.38 159.347C481.105 167.091 491.177 187.554 491.177 187.554" stroke="#EF8576" stroke-miterlimit="10" stroke-linecap="round"/>
<path d="M452.646 161.625L458.51 163.212" stroke="#EF8576" stroke-miterlimit="10" stroke-linecap="round"/>
<path d="M455.197 166.248L460.372 167.283" stroke="#EF8576" stroke-miterlimit="10" stroke-linecap="round"/>
<path d="M491.689 182.537L461.78 190.63C461.78 190.63 461.639 195.818 461.796 203.847L497.453 194.073L491.689 182.537Z" fill="#EB3341"/>
<path d="M476.657 212.475C476.657 214.355 475.131 215.879 473.251 215.879C471.371 215.879 469.849 214.355 469.849 212.475C469.849 210.595 471.371 209.071 473.251 209.071C475.131 209.071 476.657 210.595 476.657 212.475Z" fill="#EB3341"/>
<path d="M497.041 226.85C497.041 228.73 495.516 230.254 493.636 230.254C491.756 230.254 490.233 228.73 490.233 226.85C490.233 224.97 491.756 223.446 493.636 223.446C495.516 223.446 497.041 224.97 497.041 226.85Z" fill="#EB3341"/>
<path d="M502.115 203.631C502.115 205.511 500.591 207.035 498.711 207.035C496.831 207.035 495.307 205.511 495.307 203.631C495.307 201.751 496.831 200.227 498.711 200.227C500.591 200.227 502.115 201.751 502.115 203.631Z" fill="#EB3341"/>
<path d="M485.053 248.728C485.053 250.608 483.529 252.132 481.649 252.132C479.769 252.132 478.245 250.608 478.245 248.728C478.245 246.848 479.769 245.322 481.649 245.322C483.529 245.322 485.053 246.848 485.053 248.728Z" fill="#EB3341"/>
<path d="M517.461 245.323C517.461 247.203 515.937 248.728 514.057 248.728C512.177 248.728 510.653 247.203 510.653 245.323C510.653 243.443 512.177 241.919 514.057 241.919C515.937 241.919 517.461 243.443 517.461 245.323Z" fill="#EB3341"/>
<path d="M508.499 263.961C508.499 265.841 506.975 267.367 505.095 267.367C503.215 267.367 501.691 265.841 501.691 263.961C501.691 262.081 503.215 260.557 505.095 260.557C506.975 260.557 508.499 262.081 508.499 263.961Z" fill="#EB3341"/>
<path d="M485.415 275.646C485.415 277.526 483.891 279.052 482.011 279.052C480.131 279.052 478.607 277.526 478.607 275.646C478.607 273.766 480.131 272.242 482.011 272.242C483.891 272.242 485.415 273.766 485.415 275.646Z" fill="#EB3341"/>
<path d="M508.504 289.053C508.504 290.933 506.98 292.457 505.099 292.457C503.22 292.457 501.696 290.933 501.696 289.053C501.696 287.173 503.22 285.649 505.099 285.649C506.98 285.649 508.504 287.173 508.504 289.053Z" fill="#EB3341"/>
<path d="M537.489 273.738C537.489 275.618 535.965 277.142 534.085 277.142C532.205 277.142 530.681 275.618 530.681 273.738C530.681 271.858 532.205 270.333 534.085 270.333C535.965 270.333 537.489 271.858 537.489 273.738Z" fill="#EB3341"/>
<path d="M528.842 295.862C528.842 297.379 527.006 298.594 525.126 298.594C523.246 298.594 522.034 297.742 522.034 295.862C522.034 293.982 523.558 292.458 525.438 292.458C527.318 292.458 528.842 293.982 528.842 295.862Z" fill="#EB3341"/>
<path d="M539.04 243.724C539.04 245.604 537.514 247.128 535.634 247.128C533.754 247.128 532.23 245.604 532.23 243.724C532.23 241.844 533.754 240.32 535.634 240.32C537.514 240.32 539.04 241.844 539.04 243.724Z" fill="#EB3341"/>
<path d="M523.848 220.258C523.848 222.138 522.323 223.664 520.443 223.664C518.563 223.664 517.039 222.138 517.039 220.258C517.039 218.378 518.563 216.854 520.443 216.854C522.323 216.854 523.848 218.378 523.848 220.258Z" fill="#EB3341"/>
<path d="M523.848 199.576C523.848 201.456 522.323 202.98 520.443 202.98C518.563 202.98 517.039 201.456 517.039 199.576C517.039 197.696 518.563 196.172 520.443 196.172C522.323 196.172 523.848 197.696 523.848 199.576Z" fill="#EB3341"/>
<path d="M505.382 186.093C505.382 187.973 503.857 189.497 501.977 189.497C500.097 189.497 498.574 187.973 498.574 186.093C498.574 184.213 500.097 182.689 501.977 182.689C503.857 182.689 505.382 184.213 505.382 186.093Z" fill="#EB3341"/>
<path d="M540.558 216.056C539.642 216.667 539.039 217.706 539.039 218.888C539.039 220.768 540.563 222.294 542.443 222.294C542.716 222.294 542.978 222.252 543.232 222.192C542.427 220.091 541.531 218.047 540.558 216.056Z" fill="#EB3341"/>
<path d="M490.811 294.774C490.936 294.419 491.016 294.045 491.016 293.647C491.016 291.767 489.493 290.243 487.613 290.243C486.615 290.243 485.725 290.681 485.103 291.365C486.896 292.595 488.811 293.738 490.811 294.774Z" fill="#EB3341"/>
<path d="M463.689 226.85C463.43 226.85 463.18 226.885 462.938 226.939C463.117 229.141 463.324 231.382 463.557 233.646C463.602 233.647 463.645 233.658 463.689 233.658C465.569 233.658 467.094 232.134 467.094 230.254C467.094 228.374 465.569 226.85 463.689 226.85Z" fill="#EB3341"/>
<path d="M477.497 225.329C476.992 224.897 476.189 224.797 475.7 225.329C475.264 225.803 475.161 226.663 475.7 227.126C478.304 229.354 480.909 231.582 483.512 233.81C484.017 234.242 484.82 234.342 485.308 233.81C485.745 233.335 485.849 232.474 485.308 232.013C482.705 229.785 480.101 227.557 477.497 225.329Z" fill="#5069FF"/>
<path d="M488.566 211.113C488.767 209.042 488.97 206.973 489.171 204.902C489.237 204.24 488.541 203.604 487.901 203.633C487.157 203.666 486.701 204.192 486.63 204.902C486.427 206.973 486.226 209.042 486.025 211.113C485.961 211.777 486.655 212.413 487.295 212.384C488.038 212.35 488.497 211.824 488.566 211.113Z" fill="#5069FF"/>
<path d="M507.333 221.899C506.639 221.707 505.993 222.135 505.771 222.787C504.695 225.941 503.619 229.097 502.541 232.253C502.32 232.903 502.796 233.641 503.428 233.816C504.125 234.008 504.769 233.58 504.992 232.928C506.068 229.773 507.144 226.617 508.221 223.461C508.443 222.812 507.968 222.072 507.333 221.899Z" fill="#5069FF"/>
<path d="M498.981 243.819C498.611 243.269 497.845 242.975 497.242 243.363C496.694 243.717 496.391 244.513 496.786 245.102C498.399 247.499 500.011 249.897 501.625 252.293C501.995 252.843 502.761 253.137 503.363 252.749C503.911 252.395 504.215 251.601 503.819 251.011C502.206 248.614 500.594 246.217 498.981 243.819Z" fill="#5069FF"/>
<path d="M490.26 266.31C491.121 264.225 491.981 262.141 492.841 260.056C493.094 259.44 492.565 258.633 491.954 258.493C491.213 258.325 490.664 258.721 490.39 259.381C489.53 261.465 488.67 263.55 487.809 265.634C487.556 266.25 488.084 267.058 488.697 267.198C489.437 267.366 489.988 266.97 490.26 266.31Z" fill="#5069FF"/>
<path d="M498.979 278.487C496.203 279.593 493.389 280.6 490.543 281.508C489.889 281.716 489.468 282.391 489.655 283.071C489.832 283.713 490.561 284.168 491.217 283.959C494.064 283.051 496.879 282.043 499.655 280.936C500.291 280.683 500.737 280.088 500.541 279.375C500.375 278.768 499.619 278.231 498.979 278.487Z" fill="#5069FF"/>
<path d="M521.798 265.021C519.137 268.219 516.476 271.416 513.814 274.615C513.376 275.141 513.297 275.895 513.814 276.411C514.265 276.863 515.169 276.941 515.61 276.411C518.272 273.213 520.934 270.016 523.596 266.819C524.033 266.291 524.11 265.537 523.596 265.021C523.144 264.571 522.238 264.492 521.798 265.021Z" fill="#5069FF"/>
<path d="M538.669 258.631C539.147 259.069 540 259.167 540.467 258.631C541.845 257.044 543.224 255.456 544.603 253.868C545.037 253.367 545.133 252.559 544.603 252.072C544.125 251.633 543.271 251.536 542.807 252.072C541.427 253.659 540.048 255.247 538.669 256.835C538.233 257.336 538.14 258.144 538.669 258.631Z" fill="#5069FF"/>
<path d="M529.652 224.991C529.034 224.822 528.216 225.201 528.09 225.879C527.471 229.191 526.852 232.503 526.235 235.815C526.11 236.489 526.422 237.186 527.123 237.378C527.742 237.547 528.559 237.169 528.686 236.49C529.303 233.178 529.922 229.866 530.54 226.554C530.666 225.881 530.352 225.185 529.652 224.991Z" fill="#5069FF"/>
<path d="M508.722 198.828C508.825 199.507 509.681 199.883 510.285 199.716C511.013 199.516 511.275 198.833 511.173 198.153C510.738 195.259 510.302 192.364 509.866 189.469C509.765 188.791 508.909 188.416 508.305 188.583C507.578 188.783 507.314 189.464 507.417 190.145C507.853 193.04 508.287 195.935 508.722 198.828Z" fill="#5069FF"/>
<path d="M546.414 232.674C545.308 234.084 544.224 235.514 543.182 236.974C542.782 237.532 543.084 238.387 543.638 238.711C544.276 239.084 544.977 238.815 545.377 238.256C545.932 237.479 546.524 236.73 547.098 235.968C546.893 234.858 546.662 233.762 546.414 232.674Z" fill="#5069FF"/>
<path d="M532.893 203.631C530.781 204.205 528.674 204.797 526.575 205.417C525.01 205.88 525.677 208.333 527.25 207.868C529.665 207.156 532.09 206.483 534.522 205.829C533.994 205.084 533.445 204.356 532.893 203.631Z" fill="#5069FF"/>
<path d="M540.007 286.472C537.122 285.664 534.235 284.856 531.35 284.05C529.771 283.608 529.098 286.058 530.674 286.499L538.447 288.675C538.985 287.976 539.505 287.24 540.007 286.472Z" fill="#5069FF"/>
<path d="M515.377 300.556C515.433 298.476 515.487 296.398 515.543 294.318C515.562 293.632 514.946 293.048 514.273 293.048C513.569 293.048 513.019 293.63 513.002 294.318C512.946 296.415 512.89 298.511 512.834 300.608C513.683 300.619 514.531 300.602 515.377 300.556Z" fill="#5069FF"/>
<path d="M473.822 259.189C471.65 258.711 469.478 258.232 467.306 257.753C467.511 258.673 467.72 259.588 467.939 260.492C469.675 260.875 471.41 261.257 473.147 261.639C473.816 261.787 474.52 261.439 474.71 260.752C474.884 260.116 474.495 259.337 473.822 259.189Z" fill="#5069FF"/>
<path d="M464.192 207.42C463.428 208.076 462.692 208.761 461.945 209.438C461.983 210.51 462.024 211.616 462.071 212.75C463.349 211.542 464.655 210.362 465.989 209.217C466.496 208.782 466.468 207.86 465.989 207.42C465.449 206.925 464.732 206.957 464.192 207.42Z" fill="#5069FF"/>
<path d="M511.751 209.979C509.737 210.154 507.725 210.37 505.717 210.606L506.913 212.999C508.523 212.82 510.137 212.66 511.751 212.52C512.435 212.46 513.022 211.979 513.022 211.25C513.022 210.608 512.439 209.919 511.751 209.979Z" fill="#5069FF"/>
<path d="M518.735 234.581L491.69 182.537L461.78 190.63C461.78 190.63 459.578 271.185 482.203 289.221C502.095 305.081 541.502 310.599 547.654 263.689C553.643 218.038 525.931 184.367 487.612 174.219" fill="white"/>
<path d="M518.735 234.581L491.69 182.537L461.78 190.63C461.78 190.63 459.578 271.185 482.203 289.221C502.095 305.081 541.502 310.599 547.654 263.689C553.643 218.038 525.931 184.367 487.612 174.219" stroke="#16004D" stroke-width="1.33333" stroke-miterlimit="10" stroke-linecap="round"/>
<path d="M353.611 149.175C351.434 147.819 348.155 152.314 346.069 155.095C348.603 151.442 353.385 144.356 350.871 143.519C348.774 142.819 345.339 146.458 343.197 149.494C345.535 145.547 349.469 141.199 346.815 140.06C344.651 139.131 339.577 145.484 337.189 148.708C339.549 145.33 345.113 138.531 341.249 137.787C337.493 137.064 322.285 156.792 322.285 156.792L325.061 151.734C325.061 151.734 329.491 144.06 327.102 143.039C324.711 142.018 315.302 151.975 313.062 156.307C310.822 160.638 311.27 170.794 311.27 170.794L300.517 184.386L323.293 198.648L332.179 182.742C349.953 164.223 355.687 150.467 353.611 149.175Z" fill="#F6C8A6"/>
<path d="M324.36 170.45C324.36 170.45 324.848 162.654 320.989 159.284L324.921 152.12" stroke="#EF8576" stroke-miterlimit="10" stroke-linecap="round"/>
<path d="M334.685 152.12L341.031 143.519" stroke="#EF8576" stroke-miterlimit="10" stroke-linecap="round"/>
<path d="M345.948 145.589L338.821 155.701" stroke="#EF8576" stroke-miterlimit="10" stroke-linecap="round"/>
<path d="M349.752 150.274L342.387 159.915" stroke="#EF8576" stroke-miterlimit="10" stroke-linecap="round"/>
<path d="M302.509 173.23L266.555 210.847C241.583 191.239 221.051 177.72 208.391 171.911C200.849 168.45 194.17 169.278 194.17 169.278L214.369 239.932C214.369 239.932 246.955 280.535 278.419 272.814C309.883 265.092 332.266 191.126 332.266 191.126L302.509 173.23Z" fill="#5069FF"/>
<path d="M214.369 239.933C214.369 239.933 246.956 280.534 278.42 272.814C309.884 265.093 332.266 191.126 332.266 191.126L302.509 173.23" stroke="#16004D" stroke-miterlimit="10" stroke-linecap="round" stroke-linejoin="round"/>
<path d="M299.56 179.034L326.282 196.108" stroke="#16004D" stroke-miterlimit="10" stroke-linecap="round" stroke-linejoin="round"/>
<path d="M266.556 210.847L271.284 228.834" stroke="#16004D" stroke-miterlimit="10" stroke-linecap="round" stroke-linejoin="round"/>
<path d="M256.993 526.87L269.525 577.958L236.285 581.008L224.624 530.726L256.993 526.87Z" fill="#A66957"/>
<path d="M276.322 567.887L223.833 571.034L230.212 608.435L319.692 607.995L285.601 588.768L276.322 567.887Z" fill="white" stroke="#010001" stroke-width="1.33333" stroke-miterlimit="10"/>
<path d="M300.665 594.511L292.862 599.559" stroke="#010001" stroke-width="1.33333" stroke-miterlimit="10" stroke-linecap="round"/>
<path d="M294.518 589.461L286.715 594.511" stroke="#010001" stroke-width="1.33333" stroke-miterlimit="10" stroke-linecap="round"/>
<path d="M262.895 588.39C262.895 593.82 258.493 598.223 253.063 598.223C247.632 598.223 243.229 593.82 243.229 588.39C243.229 582.96 247.632 578.558 253.063 578.558C258.493 578.558 262.895 582.96 262.895 588.39Z" fill="#2E4ECC"/>
<path d="M164.085 527.873L164.589 580.474L131.533 575.832L131.693 524.216L164.085 527.873Z" fill="#A66957"/>
<path d="M174.821 569.67L123.701 570.807L119.849 608.435L209.329 607.995L175.239 588.768L174.821 569.67Z" fill="white" stroke="#010001" stroke-width="1.33333" stroke-miterlimit="10"/>
<path d="M190.302 594.511L182.499 599.559" stroke="#010001" stroke-width="1.33333" stroke-miterlimit="10" stroke-linecap="round"/>
<path d="M184.154 589.461L176.352 594.511" stroke="#010001" stroke-width="1.33333" stroke-miterlimit="10" stroke-linecap="round"/>
<path d="M155.963 589.542C155.963 594.973 151.562 599.374 146.131 599.374C140.701 599.374 136.298 594.973 136.298 589.542C136.298 584.113 140.701 579.71 146.131 579.71C151.562 579.71 155.963 584.113 155.963 589.542Z" fill="#2E4ECC"/>
<path d="M245.422 511.077H268.88V534.381H245.422V511.077ZM245.422 486.481H268.88V509.785H245.422V486.481ZM244.128 386.8H220.669V363.497H244.128V386.8ZM244.128 411.397H220.669V388.093H244.128V411.397ZM244.128 435.993H220.669V412.689H244.128V435.993ZM244.128 460.591H220.669V437.287H244.128V460.591ZM244.128 485.187H220.669V461.883H244.128V485.187ZM244.128 509.784H220.669V486.48H244.128V509.784ZM244.128 534.38H220.669V511.076H244.128V534.38ZM219.377 337.607H195.918V314.304H219.377V337.607ZM219.377 362.204H195.918V338.901H219.377V362.204ZM219.377 386.8H195.918V363.497H219.377V386.8ZM219.377 411.397H195.918V388.093H219.377V411.397ZM219.377 435.993H195.918V412.689H219.377V435.993ZM270.173 546.456V535.673H282.334L282.077 534.38H270.173V511.077H277.43L277.173 509.784H270.173V486.481H272.528L272.27 485.187H270.173V474.667L268.88 468.179V485.187H245.422V461.883H267.625L267.368 460.591H245.422V437.287H262.721L262.464 435.993H245.422V412.691H257.818L257.561 411.397H245.422V388.095H252.914L252.657 386.8H245.422V363.497H248.012L247.754 362.204H245.422V350.504L244.128 344.016V362.204H220.67V338.901H243.109L242.85 337.607H220.67V314.304H238.205L237.948 313.011H220.67V302.964H219.377V313.011H195.918V302.964H194.625V313.011H173.501L173.764 314.304H194.625V337.607H178.489L178.752 338.901H194.625V362.204H182.936L183.149 363.497H194.625V386.8H186.994L187.208 388.095H194.625V411.397H191.053L191.266 412.691H194.625V433.045L195.918 440.883V437.287H219.377V460.591H199.17L199.384 461.883H219.377V485.187H203.23L203.444 486.481H219.377V509.784H207.288L207.502 511.077H219.377V534.38H211.348L211.561 535.673H219.377V550.547L220.67 550.443V535.673H244.128V548.553L245.422 548.449V535.673H268.88V546.56L270.173 546.456Z" fill="#EB3341"/>
<path d="M180.842 349.362L214.086 550.973L284.258 545.321L235.944 302.964" fill="white"/>
<path d="M180.842 349.362L214.086 550.973L284.258 545.321L235.944 302.964" stroke="#16004D" stroke-width="1.33333" stroke-miterlimit="10" stroke-linecap="round"/>
<path d="M201.841 341.118L190.913 342.064L184.424 429.327" stroke="#3A4A36" stroke-width="0.333333" stroke-miterlimit="10"/>
<path d="M171.167 314.304H194.626V337.607H171.167V314.304ZM169.874 337.607H146.417V314.304H169.874V337.607ZM169.874 362.204H146.417V338.901H169.874V362.204ZM169.874 386.8H146.417V363.497H169.874V386.8ZM169.874 411.397H146.417V388.093H169.874V411.397ZM169.874 435.993H146.417V412.689H169.874V435.993ZM169.874 460.591H146.417V437.287H169.874V460.591ZM169.874 485.187H146.417V461.883H169.874V485.187ZM169.874 509.784H146.417V486.48H169.874V509.784ZM169.874 534.38H146.417V511.076H169.874V534.38ZM145.122 485.187H121.665V461.883H145.122V485.187ZM145.122 509.784H121.665V486.48H145.122V509.784ZM145.122 534.38H121.665V511.076H145.122V534.38ZM195.918 341.631V338.901H202.362L202.666 337.607H195.918V314.304H208.147L208.451 313.011H195.918V289.708H213.934L214.238 288.415H195.918V284.072L194.625 284.425V288.415H180.025L175.29 289.708H194.625V313.011H171.167V290.835L169.874 291.188V313.011H146.417V297.596L145.122 297.949V313.011H139.59L139.393 314.304H145.122V337.607H136.153L135.979 338.901H145.122V362.204H132.846L132.673 363.497H145.122V386.8H129.541L129.367 388.095H145.122V411.397H126.235L126.062 412.691H145.122V435.993H122.929L122.755 437.287H145.122V460.591H121.665V445.4L120.371 455.024V460.591H119.623L119.45 461.883H120.371V485.187H116.317L116.143 486.481H120.371V509.784H113.011L112.838 511.077H120.371V534.38H109.705L109.531 535.673H120.371V546.764L121.665 546.781V535.673H145.122V547.103L146.417 547.12V535.673H169.874V547.443L171.167 547.46V535.673H181.425L181.489 534.38H171.167V511.077H182.63L182.694 509.784H171.167V486.481H183.835L183.899 485.187H171.167V461.883H185.041L185.105 460.591H171.167V437.287H186.246L186.31 435.993H171.167V412.691H187.451L187.514 411.397H171.167V388.095H188.657L188.721 386.8H171.167V363.497H189.862L189.925 362.204H171.167V338.901H194.625V341.743L195.918 341.631Z" fill="#EB3341"/>
<path d="M202 341L190.913 342.064L180.841 547.592L108.063 546.594L136.971 334H203.5" fill="white"/>
<path d="M202 341L190.913 342.064L180.841 547.592L108.063 546.594L136.971 334H203.5L202 341Z" stroke="#16004D" stroke-width="1.33333" stroke-miterlimit="10" stroke-linecap="round"/>
<path d="M252.72 334.823L239.4 217.85C239.4 190.342 217.101 168.042 189.593 168.042C162.085 168.042 139.785 190.342 139.785 217.85L126.767 333.09L252.72 334.823Z" fill="#5069FF"/>
<path d="M133.662 272.055L126.766 333.09L252.719 334.823L241.306 234.58" stroke="#16004D" stroke-miterlimit="10" stroke-linecap="round" stroke-linejoin="round"/>
<path d="M209.243 179.328C205.134 185.864 197.859 190.208 189.57 190.208C180.932 190.208 173.398 185.493 169.396 178.496" stroke="#16004D" stroke-miterlimit="10" stroke-linecap="round"/>
<path d="M178.278 142.451V126.832C178.278 117.867 184.722 110.53 192.597 110.53H204.444C212.32 110.53 218.762 117.867 218.762 126.832V145.196C218.762 154.163 212.32 161.499 204.444 161.499H200.649V169.168C200.649 173.036 197.513 176.172 193.645 176.172H185.148C181.28 176.172 178.144 173.036 178.144 169.168V162.707V160.212V159.59V148.411V143.779C178.144 143.323 178.196 142.882 178.278 142.451Z" fill="#F6C8A6"/>
<path d="M195.31 132.832C195.31 134.307 196.504 135.502 197.979 135.502C199.454 135.502 200.65 134.307 200.65 132.832C200.65 131.358 199.454 130.162 197.979 130.162C196.504 130.162 195.31 131.358 195.31 132.832Z" fill="#161522"/>
<path d="M212.79 132.441C212.79 133.7 213.811 134.72 215.069 134.72C216.329 134.72 217.349 133.7 217.349 132.441C217.349 131.183 216.329 130.163 215.069 130.163C213.811 130.163 212.79 131.183 212.79 132.441Z" fill="#161522"/>
<path d="M198.883 126.779C197.582 126.788 196.281 127.034 195.074 127.52C194.751 127.651 194.489 127.971 194.609 128.34C194.71 128.652 195.082 128.946 195.429 128.807C195.994 128.579 196.579 128.4 197.177 128.28C197.321 128.251 197.466 128.226 197.61 128.203C197.643 128.198 197.678 128.194 197.711 128.188C197.646 128.196 197.654 128.195 197.735 128.186C197.802 128.176 197.87 128.168 197.937 128.163C198.251 128.13 198.567 128.115 198.883 128.112C199.233 128.111 199.566 127.807 199.55 127.446C199.534 127.087 199.257 126.776 198.883 126.779Z" fill="#161522"/>
<path d="M216.944 127.415C216.072 126.897 215.103 126.532 214.103 126.361C213.92 126.332 213.752 126.333 213.588 126.429C213.451 126.511 213.319 126.669 213.281 126.828C213.208 127.151 213.38 127.585 213.748 127.648C214.213 127.727 214.669 127.847 215.112 128.007C215.224 128.048 215.34 128.087 215.447 128.137C215.285 128.061 215.436 128.135 215.464 128.147C215.523 128.172 215.58 128.199 215.639 128.227C215.855 128.331 216.065 128.444 216.271 128.565C216.571 128.744 217.016 128.644 217.183 128.327C217.353 128.005 217.264 127.605 216.944 127.415Z" fill="#161522"/>
<path d="M207.364 130.833C208.265 133.16 209.424 135.373 210.765 137.474C210.832 137.312 210.897 137.149 210.964 136.985C209.313 137.208 207.662 137.43 206.012 137.653C205.588 137.71 205.768 138.352 206.189 138.296C207.84 138.073 209.49 137.85 211.141 137.628C211.354 137.6 211.445 137.301 211.34 137.138C210.03 135.086 208.888 132.928 208.006 130.656C207.853 130.26 207.208 130.433 207.364 130.833Z" fill="#161522"/>
<path d="M199.886 142.174C199.886 142.174 201.251 148.114 209.24 146.987" stroke="#161522" stroke-width="0.666667" stroke-miterlimit="10" stroke-linecap="round"/>
<path d="M181.625 137.446L183.811 123.062C183.811 123.062 202.269 126.52 217.71 121.327C223.575 119.354 229.005 116.134 232.823 111.002C245.677 93.7324 231.377 86.9431 224.818 88.0364C218.258 89.1298 215.062 93.3271 215.062 93.3271C215.062 93.3271 218.887 87.0298 212.782 85.7191C206.677 84.4071 202.211 88.7351 198.697 95.2938C198.697 95.2938 172.466 92.8484 163.598 108.722C154.731 124.592 161.918 135.854 178.137 152.251L179.615 143.08L181.625 137.446Z" fill="#7F4040"/>
<path d="M198.111 142.413C198.111 145.354 195.726 147.738 192.784 147.738C189.843 147.738 187.459 145.354 187.459 142.413C187.459 139.471 189.843 137.086 192.784 137.086C195.726 137.086 198.111 139.471 198.111 142.413Z" fill="#EF8576"/>
<path d="M213.925 142.413C213.925 145.123 215.958 147.337 218.578 147.67C218.689 146.861 218.762 146.039 218.762 145.195V137.135C216.054 137.386 213.925 139.638 213.925 142.413Z" fill="#EF8576"/>
<path d="M163.607 139.556C163.607 144.722 167.83 148.91 173.038 148.91C178.246 148.91 182.469 144.722 182.469 139.556C182.469 134.389 178.246 130.201 173.038 130.201C167.83 130.201 163.607 134.389 163.607 139.556Z" fill="#F6C8A6"/>
<path d="M178.69 140.791C178.831 138.559 177.777 136.041 175.67 135.078C174.53 134.557 173.263 134.465 172.03 134.593C171.734 134.625 171.479 134.823 171.479 135.143C171.479 135.418 171.733 135.725 172.03 135.694C173.05 135.589 174.023 135.619 174.981 135.974C175.113 136.022 175.237 136.081 175.413 136.177C175.581 136.27 175.745 136.374 175.901 136.49C175.829 136.437 176.002 136.574 176.025 136.595C176.087 136.649 176.149 136.705 176.207 136.763C176.334 136.886 176.453 137.018 176.563 137.155C176.491 137.066 176.626 137.242 176.646 137.271C176.69 137.334 176.733 137.399 176.774 137.463C176.862 137.605 176.943 137.751 177.017 137.901C177.053 137.973 177.087 138.047 177.121 138.122C177.157 138.203 177.071 137.999 177.125 138.13C177.138 138.165 177.151 138.198 177.165 138.231C177.222 138.382 177.274 138.537 177.321 138.691C177.398 138.951 177.459 139.217 177.506 139.486C177.515 139.543 177.523 139.602 177.534 139.661C177.559 139.822 177.523 139.557 177.541 139.714C177.553 139.825 177.565 139.937 177.574 140.047C177.593 140.294 177.605 140.545 177.589 140.791C177.543 141.499 178.645 141.495 178.69 140.791Z" fill="#EF8576"/>
<path d="M189.569 183.517C197.417 183.517 203.973 178.042 205.664 170.707C200.62 168.989 195.219 168.042 189.593 168.042C183.952 168.042 178.535 168.993 173.479 170.722C175.175 178.049 181.727 183.517 189.569 183.517Z" fill="#F6C8A6"/>
<path d="M229.465 280.698C229.465 280.698 239.082 275.934 238.611 273.42C237.897 269.602 223.103 274.95 219.921 275.479C216.737 276.008 206.854 279.37 202.853 280.846C198.851 282.32 191.087 283.499 191.087 283.499L189.202 304.323C189.202 304.323 215.009 308.063 228.655 307.995C242.301 307.928 253.941 305.06 254.131 301.875C254.322 298.691 250.369 300.394 250.369 300.394C250.369 300.394 256.527 298.486 256.581 296.551C256.633 294.616 251.611 294.79 251.611 294.79C251.611 294.79 259.049 293.191 259.034 290.503C259.021 287.815 249.559 289.316 249.559 289.316C249.559 289.316 257.103 287.068 256.29 284.62C255.477 282.172 243.023 283.686 234.282 284.679C225.541 285.672 226.703 282.195 229.465 280.698Z" fill="#F6C8A6"/>
<path d="M251.82 299.511C247.751 300.617 243.554 301.105 239.34 300.97C238.696 300.949 238.696 301.949 239.34 301.97C243.638 302.107 247.935 301.602 252.086 300.475C252.707 300.307 252.443 299.342 251.82 299.511Z" fill="#EF8576"/>
<path d="M254.221 293.248C249.793 294.199 245.307 294.828 240.789 295.128C240.15 295.171 240.145 296.171 240.789 296.128C245.394 295.822 249.973 295.182 254.486 294.212C255.115 294.078 254.85 293.114 254.221 293.248Z" fill="#EF8576"/>
<path d="M252.49 287.969C248.171 288.469 243.852 288.969 239.535 289.47C238.903 289.543 238.896 290.545 239.535 290.47C243.852 289.969 248.171 289.469 252.49 288.969C253.122 288.895 253.128 287.895 252.49 287.969Z" fill="#EF8576"/>
<path d="M142.768 265.486L149.78 266.331L152.7 234.581L102.633 240.255C86.2343 277.315 95.137 306.429 112.444 312.721C164.222 331.549 202.474 310.283 202.474 310.283V272.689L142.768 265.486Z" fill="#5069FF"/>
<path d="M102.634 240.256C86.2336 277.316 95.1376 306.428 112.443 312.721C164.223 331.549 202.474 310.284 202.474 310.284V272.689L142.768 265.486" stroke="#16004D" stroke-miterlimit="10" stroke-linecap="round"/>
<path d="M152.699 234.581L149.779 266.333" stroke="#16004D" stroke-miterlimit="10" stroke-linecap="round"/>
<path d="M193.631 275.888C193.631 276.52 192.578 310.022 192.578 310.022" stroke="#16004D" stroke-miterlimit="10" stroke-linecap="round"/>
<path d="M55.4268 608.728H604.089" stroke="#161522" stroke-width="1.33333" stroke-miterlimit="10" stroke-linecap="round"/>
</g>
</g>
<defs>
<clipPath id="clip0_83_1209">
<rect width="666.667" height="666.667" fill="white"/>
</clipPath>
</defs>
</svg>
